<?xml version="1.0" encoding="UTF-8"?><svg id="Layer_1" xmlns="http://www.w3.org/2000/svg" viewBox="0 0 382.11 75.46"><defs><style>.cls-1{fill:#bbbdbf;}.cls-2{fill:#023b3d;}.cls-3{fill:#076c68;}</style></defs><rect class="cls-1" x="275.36" y="11.84" width="1.73" height="63.62"/><g><g><rect class="cls-2" x="-1.79" y="11.74" width="37.57" height="10.51" transform="translate(-7.04 17) rotate(-45)"/><rect class="cls-2" x="8.99" y="24.16" width="29.64" height="10.51" transform="translate(-13.83 25.45) rotate(-45)"/><rect class="cls-2" x="21.4" y="40.54" width="10.51" height="10.51" transform="translate(-24.57 32.26) rotate(-45)"/></g><polygon class="cls-3" points="19.23 45.79 26.66 53.22 26.66 73.62 19.23 66.27 19.23 45.79"/><polygon class="cls-3" points="9.61 36.17 17.04 43.6 17.04 57.61 9.61 50.26 9.61 36.17"/><polygon class="cls-3" points="0 26.57 7.43 34 7.43 42.67 0 35.32 0 26.57"/></g><path class="cls-2" d="M50.95,37c0-2.37-.12-3.92-.35-4.64-.53-1.51-1.78-2.45-3.73-2.82-.12-.02-.17-.08-.17-.17s.05-.15,.14-.17h22.87v5.09c0,.09-.05,.14-.14,.14s-.15-.06-.17-.17c-.26-1.35-1.32-2.22-3.21-2.61-.79-.16-2.17-.24-4.15-.24h-4.43c-.47,1.05-.7,2.92-.7,5.61l-.03,4.5,3.17-.03c2.65,0,4.52-.53,5.61-1.6,.16-.16,.23-.24,.21-.24,.09,0,.14,.07,.14,.21v5.47c0,.12-.05,.17-.14,.17,.02,0-.05-.07-.21-.21-1.09-1.07-2.96-1.61-5.61-1.64h-3.17l.03,5.68c0,2.37,.13,3.92,.38,4.64,.51,1.51,1.74,2.46,3.69,2.86,.12,.02,.17,.08,.17,.17s-.05,.15-.14,.17h-12.93c-.09-.02-.14-.08-.14-.17s.06-.15,.17-.17c1.32-.26,2.18-1.34,2.58-3.24,.16-.81,.24-2.23,.24-4.25v-12.3Z"/><path class="cls-2" d="M104.07,56.97c-.02,.09-.08,.15-.17,.17h-4.78c-1.39,0-2.52-.21-3.38-.63-1.14-.56-2.24-1.59-3.31-3.1l-6.27-8.78c-.86,.09-2.3,.09-4.32,0l-.07,4.68c-.02,2.33,.09,3.88,.35,4.65,.53,1.52,1.8,2.47,3.8,2.87,.12,.02,.17,.08,.17,.17s-.05,.14-.14,.14h-13.11c-.12,0-.17-.05-.17-.14,.02-.09,.09-.15,.21-.17,1.32-.26,2.18-1.34,2.58-3.25,.16-.79,.26-2.21,.28-4.26l.07-12.28c0-2.35-.13-3.9-.38-4.64-.51-1.51-1.77-2.45-3.76-2.83-.12-.02-.17-.08-.17-.17,0-.12,.05-.17,.14-.17h10.21c1.79-.4,3.46-.59,5.02-.59,3,0,5.35,.72,7.04,2.16,1.51,1.28,2.27,2.89,2.27,4.84,0,2.25-.94,4.18-2.82,5.79-.88,.6-1.55,1.04-1.99,1.32l7.81,10.49c.74,1.02,1.34,1.72,1.78,2.09,.81,.72,1.8,1.2,2.96,1.43,.12,.02,.17,.09,.17,.21Zm-19.73-13.84c1.74,0,3.22-.51,4.43-1.53,1.3-1.12,1.95-2.58,1.95-4.39,0-.81-.14-1.66-.42-2.55-.84-2.65-2.58-4.04-5.23-4.18-1.56,.07-2.63,.72-3.21,1.95l-.03,10.32c.81,.26,1.65,.38,2.51,.38Z"/><path class="cls-2" d="M127.63,50.63c.12,0,.17,.05,.17,.14v6.31h-23.88c-.12-.02-.16-.08-.14-.17,0-.09,.06-.15,.17-.17,1.39-.26,2.3-1.34,2.72-3.24,.16-.79,.24-2.18,.24-4.18v-12.23c0-2.37-.13-3.91-.38-4.64-.53-1.49-1.84-2.43-3.9-2.82-.12-.02-.17-.08-.17-.17s.05-.14,.14-.14h24.05v5.05c-.02,.09-.08,.14-.17,.14s-.15-.06-.17-.17c-.28-1.35-1.41-2.22-3.38-2.61-.84-.16-2.29-.24-4.36-.24h-4.64c-.49,1.05-.73,2.92-.73,5.61v4.46l3.28-.03c2.79-.02,4.76-.57,5.93-1.64l.21-.21c.09,0,.14,.06,.14,.17v5.47c0,.12-.05,.17-.14,.17l-.21-.21c-1.16-1.07-3.14-1.61-5.93-1.64h-3.28v5.68c0,1.53,.02,2.54,.07,3.03,.12,1.09,.41,1.96,.87,2.61h5.58c2.46,0,4.07-.13,4.81-.38,1.56-.54,2.53-1.79,2.93-3.76,.02-.12,.08-.17,.17-.17Z"/><path class="cls-2" d="M154.02,50.63c.12,0,.17,.05,.17,.14v6.31h-23.88c-.12-.02-.16-.08-.14-.17,0-.09,.06-.15,.17-.17,1.39-.26,2.3-1.34,2.72-3.24,.16-.79,.24-2.18,.24-4.18v-12.23c0-2.37-.13-3.91-.38-4.64-.53-1.49-1.84-2.43-3.9-2.82-.12-.02-.17-.08-.17-.17s.05-.14,.14-.14h24.05v5.05c-.02,.09-.08,.14-.17,.14s-.15-.06-.17-.17c-.28-1.35-1.41-2.22-3.38-2.61-.84-.16-2.29-.24-4.36-.24h-4.64c-.49,1.05-.73,2.92-.73,5.61v4.46l3.28-.03c2.79-.02,4.76-.57,5.93-1.64l.21-.21c.09,0,.14,.06,.14,.17v5.47c0,.12-.05,.17-.14,.17l-.21-.21c-1.16-1.07-3.14-1.61-5.93-1.64h-3.28v5.68c0,1.53,.02,2.54,.07,3.03,.12,1.09,.41,1.96,.87,2.61h5.58c2.46,0,4.07-.13,4.81-.38,1.56-.54,2.53-1.79,2.93-3.76,.02-.12,.08-.17,.17-.17Z"/><path class="cls-2" d="M197.03,56.94c0,.09-.05,.15-.14,.17h-13.14c-.09-.02-.14-.08-.14-.17s.06-.15,.17-.17c1.35-.26,2.22-1.34,2.61-3.25,.16-.82,.24-2.23,.24-4.23,.02-8.13,.02-12.68,0-13.64l-10.56,21.33s-.08,.06-.1,.03l-11.29-21.37v13.66c0,2.39,.13,3.94,.38,4.64,.51,1.51,1.75,2.45,3.73,2.82,.12,.02,.17,.08,.17,.17,.02,.09-.02,.15-.14,.17h-10.94c-.12-.02-.17-.08-.17-.17s.07-.15,.21-.17c1.32-.26,2.18-1.34,2.58-3.25,.16-.81,.24-2.22,.24-4.22v-12.28c0-2.37-.12-3.91-.35-4.61-.54-1.51-1.79-2.45-3.77-2.83-.12-.02-.17-.09-.17-.21,0-.09,.05-.14,.14-.14h10.84l9.72,18.65,9.2-18.65h9.24c.12,0,.17,.06,.17,.17-.02,.09-.09,.15-.21,.17-1.32,.26-2.18,1.32-2.58,3.21-.19,.81-.28,2.22-.28,4.22v12.3c0,2.37,.13,3.92,.38,4.64,.53,1.51,1.79,2.45,3.76,2.82,.12,.02,.17,.08,.17,.17Z"/><path class="cls-2" d="M232.23,56.95c0,.09-.05,.13-.14,.13h-13.14c-.09,0-.14-.04-.14-.13s.06-.14,.17-.16c1.09-.19,1.64-.87,1.64-2.03,0-.69-.19-1.54-.56-2.54h-12.58c-.42,.97-.63,1.74-.63,2.32,0,1.18,.89,1.93,2.68,2.25,.12,.02,.17,.08,.17,.16s-.05,.13-.14,.13h-10.88c-.09,0-.14-.04-.14-.13s.06-.14,.17-.16c1.35-.24,2.64-1.23,3.87-2.99,.56-.77,1.28-2.07,2.16-3.9l9.97-20.32,10.42,20.29c1.09,2.12,1.92,3.53,2.47,4.22,1.16,1.44,2.64,2.34,4.43,2.71,.12,.02,.17,.08,.17,.16Zm-18.47-17.55l-4.88,9.79h9.83l-4.95-9.79Z"/><path class="cls-2" d="M264.89,29.4c-.02,.09-.09,.15-.21,.17-1.32,.26-2.18,1.34-2.58,3.24-.19,.81-.28,2.22-.28,4.22v20.53c-.05,.16-.17,.17-.38,.03l-22.97-19.87,.8,11.57c.14,1.07,.28,2.14,.42,3.21,.19,1.16,.52,2.04,1.01,2.65,.63,.79,1.64,1.31,3.03,1.57,.12,.02,.17,.08,.17,.17,0,.12-.05,.17-.14,.17h-10.84c-.12,0-.17-.06-.17-.17,0-.09,.07-.15,.21-.17,1.32-.26,2.18-1.32,2.58-3.21,.19-.81,.28-2.23,.28-4.25v-12.23c0-2.37-.13-3.92-.38-4.64-.53-1.51-1.79-2.45-3.76-2.82-.12-.02-.17-.08-.17-.17s.05-.15,.14-.17h10.84c.12,.02,.17,.08,.17,.17-.02,.09-.09,.15-.21,.17-.35,.07-.67,.2-.98,.38-.26,.26-.38,.55-.38,.87,0,.54,.33,1.1,.98,1.71,11.62,10.18,17.42,15.24,17.39,15.2l-1.05-10.84c-.23-2.23-.52-3.74-.87-4.53-.65-1.44-1.86-2.37-3.63-2.79-.12-.02-.17-.08-.17-.17s.05-.15,.14-.17h10.84c.12,.02,.17,.08,.17,.17Z"/><path class="cls-2" d="M310.5,50.66c.09-.02,.15,.02,.17,.14v6.31h-23.04c-.12-.02-.17-.08-.17-.17,.02-.09,.09-.15,.21-.17,1.32-.26,2.18-1.34,2.58-3.24,.19-.81,.28-2.22,.28-4.22v-12.27c0-2.37-.13-3.92-.38-4.64-.54-1.51-1.79-2.45-3.76-2.82-.12-.02-.17-.08-.17-.17s.05-.15,.14-.17h13.11c.09,.02,.14,.08,.14,.17s-.06,.15-.17,.17c-1.35,.26-2.22,1.34-2.61,3.24-.16,.81-.24,2.22-.24,4.22v12.27c0,1.56,.02,2.58,.07,3.07,.12,1.09,.41,1.96,.87,2.61h5.37c2.37,0,3.91-.13,4.64-.38,1.51-.53,2.45-1.79,2.82-3.76,.02-.12,.08-.17,.17-.17Z"/><path class="cls-2" d="M346.28,56.95c0,.09-.05,.13-.14,.13h-13.14c-.09,0-.14-.04-.14-.13s.06-.14,.17-.16c1.09-.19,1.64-.87,1.64-2.03,0-.69-.19-1.54-.56-2.54h-12.58c-.42,.97-.63,1.74-.63,2.32,0,1.18,.89,1.93,2.68,2.25,.12,.02,.17,.08,.17,.16s-.05,.13-.14,.13h-10.88c-.09,0-.14-.04-.14-.13s.06-.14,.17-.16c1.35-.24,2.64-1.23,3.87-2.99,.56-.77,1.28-2.07,2.16-3.9l9.97-20.32,10.42,20.29c1.09,2.12,1.92,3.53,2.47,4.22,1.16,1.44,2.64,2.34,4.43,2.71,.12,.02,.17,.08,.17,.16Zm-18.47-17.55l-4.88,9.79h9.83l-4.95-9.79Z"/><path class="cls-2" d="M382.11,29.36c0,.11-.06,.18-.17,.2-1.35,.24-2.65,1.26-3.9,3.05-.54,.79-1.26,2.11-2.16,3.97l-9.83,20.4c-.05,.09-.11,.13-.17,.13s-.14-.04-.21-.13l-6.31-15.17-7.11,15.17c-.05,.09-.12,.13-.21,.13-.05,0-.1-.04-.17-.13l-10.25-20.36c-1.09-2.17-1.93-3.61-2.51-4.34-1.16-1.45-2.64-2.35-4.43-2.73-.12-.04-.17-.11-.17-.2s.05-.13,.14-.13h13.21c.09,0,.14,.04,.14,.13,0,.11-.06,.18-.17,.2-1.14,.2-1.71,.92-1.71,2.17s.5,2.79,1.5,4.57l6.59,11.86,4.04-10.08-.42-1.45c-.58-2.04-1.14-3.48-1.67-4.34-.93-1.45-2.27-2.35-4.01-2.73-.12-.04-.16-.11-.14-.2,0-.09,.06-.13,.17-.13h12.83c.12,0,.16,.04,.14,.13-.02,.11-.09,.18-.21,.2-1.4,.24-2.09,1.22-2.09,2.92,0,.85,.23,2.12,.7,3.81l4.43,11.76,4.67-11.46c.95-2.36,1.43-3.86,1.43-4.5,0-1.33-.99-2.18-2.96-2.53-.12-.02-.17-.09-.17-.2,0-.09,.05-.13,.14-.13h10.91c.09,0,.14,.04,.14,.13Z"/></svg>