<svg width="256" height="256" viewBox="0 0 256 256" fill="none" xmlns="http://www.w3.org/2000/svg">
<path d="M0.060791 118.883C0.060791 77.2687 0.060791 56.4614 8.15955 40.5667C15.2834 26.5853 26.6506 15.2181 40.632 8.09424C56.5267 -0.0045166 77.334 -0.0045166 118.949 -0.0045166H137.112C178.727 -0.0045166 199.534 -0.0045166 215.429 8.09424C229.41 15.2181 240.777 26.5853 247.901 40.5667C256 56.4614 256 77.2687 256 118.883V137.047C256 178.661 256 199.469 247.901 215.364C240.777 229.345 229.41 240.712 215.429 247.836C199.534 255.935 178.727 255.935 137.112 255.935H118.949C77.334 255.935 56.5267 255.935 40.632 247.836C26.6506 240.712 15.2834 229.345 8.15955 215.364C0.060791 199.469 0.060791 178.661 0.060791 137.047V118.883Z" fill="#6BFFAF"/>
<path d="M150.365 100.408C151.355 99.4519 151.85 98.2737 151.85 96.8735C151.85 95.5075 151.355 94.3464 150.365 93.3902C149.408 92.3998 148.248 91.9047 146.882 91.9047C145.499 91.9047 144.321 92.3998 143.347 93.3902C142.391 94.3464 141.913 95.5075 141.913 96.8735C141.913 98.2737 142.391 99.4519 143.347 100.408C144.321 101.364 145.499 101.842 146.882 101.842C148.248 101.842 149.408 101.364 150.365 100.408Z" fill="black"/>
<path d="M119.556 104.84C121.041 104.84 122.305 104.319 123.346 103.277C124.405 102.236 124.934 100.964 124.934 99.461C124.934 97.9755 124.405 96.7119 123.346 95.6703C122.305 94.6117 121.041 94.0823 119.556 94.0823C118.07 94.0823 116.798 94.6117 115.74 95.6703C114.698 96.7119 114.178 97.9755 114.178 99.461C114.178 100.964 114.698 102.236 115.74 103.277C116.798 104.319 118.07 104.84 119.556 104.84Z" fill="black"/>
<path d="M117.61 163.979C117.239 162.995 116.564 162.277 115.586 161.828C114.629 161.395 113.655 161.361 112.667 161.725C111.679 162.112 110.962 162.787 110.516 163.749C110.084 164.72 110.05 165.694 110.413 166.668C118.66 188.625 131.764 199.451 149.724 199.145C150.781 199.135 151.678 198.751 152.413 197.993C153.17 197.238 153.546 196.333 153.54 195.278C153.531 194.222 153.147 193.317 152.388 192.563C151.632 191.824 150.727 191.457 149.673 191.462C135.127 191.328 124.439 182.167 117.61 163.979Z" fill="black"/>
<path d="M141.042 39.6039C142.698 37.4866 145.097 36.4792 148.238 36.5816C153.343 38.2037 156.878 45.4949 158.841 58.4549C161.043 73.003 164.748 90.5221 169.956 111.012C165.568 111.952 163.485 114.188 163.707 117.723C163.519 119.926 164.91 122.905 167.881 126.662C167.95 126.764 168.035 126.867 168.137 126.969C171.193 130.128 174.719 132.544 178.714 134.218C178.851 134.269 179.013 134.32 179.201 134.371C179.235 134.405 179.278 134.431 179.329 134.448C184.639 135.985 189.342 131.742 193.44 121.719C196.189 124.246 197.597 128.036 197.665 133.091V133.142C197.819 139.443 196.462 144.872 193.594 149.432C192.176 151.634 190.35 153.35 188.113 154.58C187.72 151.045 186.576 147.647 184.681 144.386C184.152 143.464 183.358 142.832 182.3 142.491C181.207 142.149 180.131 142.175 179.073 142.567C177.997 142.96 177.229 143.626 176.768 144.565C173.729 150.319 167.941 153.47 159.404 154.016C148.529 154.665 140.112 150.84 134.153 142.542C133.675 141.859 133.018 141.355 132.181 141.031C131.344 140.723 130.482 140.646 129.594 140.8C128.707 140.954 127.938 141.321 127.29 141.901C126.658 142.482 126.274 143.165 126.137 143.95C124.72 151.224 126.41 158.831 131.208 166.771L131.182 166.746C134.358 172.312 140.129 176.564 148.495 179.501C152.626 180.952 155.964 183.505 158.508 187.159L158.559 187.185C159.72 188.875 160.736 190.805 161.607 192.973C164.321 199.803 168.206 204.226 173.259 206.241C173.515 206.343 173.771 206.437 174.028 206.523C174.25 206.608 174.489 206.685 174.745 206.753C174.83 206.77 174.907 206.796 174.975 206.83C174.992 206.83 175.009 206.83 175.026 206.83C175.396 206.929 175.763 207.014 176.128 207.086C176.162 207.12 176.204 207.146 176.256 207.163C178.612 208.153 180.174 210.441 180.942 214.027C181.591 217.186 181.437 219.184 180.481 220.02C180.208 220.242 179.926 220.507 179.636 220.814C178.902 221.532 178.535 222.394 178.535 223.401C178.535 224.426 178.902 225.288 179.636 225.988C180.336 226.688 181.198 227.038 182.223 227.038C183.23 227.038 184.084 226.688 184.784 225.988C185.501 225.288 185.859 224.426 185.859 223.401C185.859 222.394 185.501 221.532 184.784 220.814C184.459 220.473 184.169 220.217 183.913 220.046C182.803 218.868 182.428 216.887 182.786 214.104C182.957 212.635 183.529 211.124 184.502 209.57C185.202 208.529 186.457 207.59 188.267 206.753C188.491 206.692 188.713 206.624 188.933 206.548C188.984 206.514 189.052 206.488 189.137 206.471C190.964 205.976 192.62 205.302 194.106 204.448C194.515 204.226 194.9 203.995 195.258 203.756C195.719 203.449 196.163 203.125 196.59 202.783C196.983 202.459 197.375 202.126 197.768 201.784C199.424 200.179 200.781 198.241 201.84 195.97L202.557 194.382C203.291 192.282 203.667 190.105 203.684 187.851C203.462 178.289 198.639 169.913 189.214 162.725C194.319 160.863 198.323 157.687 201.225 153.197C204.896 147.562 206.637 140.826 206.45 132.988C206.228 119.516 199.586 112.045 186.525 110.577H186.5C183.887 110.253 181.301 110.107 178.74 110.142C173.464 89.5659 169.725 71.9956 167.523 57.4304C164.808 39.6722 158.935 30.204 149.903 29.0258C149.681 28.9746 149.476 28.949 149.288 28.949C142.408 28.505 137.218 30.648 133.718 35.3778C128.322 42.5323 124.857 50.9418 123.32 60.6064L113.05 61.5285C112.231 50.1052 109.807 42.2335 105.777 37.9135H105.752C100.493 32.0054 94.2016 31.0151 86.8772 34.9424C86.7064 35.0448 86.5442 35.1473 86.3906 35.2497C76.454 42.0286 69.1125 59.0526 64.3661 86.3217C60.8831 106.283 56.9819 132.476 52.6624 164.902C51.3819 174.447 50.366 184.069 49.6148 193.767C49.5124 194.826 49.8624 195.757 50.6648 196.559C51.4672 197.345 52.4746 197.78 53.6868 197.865C54.8819 197.934 55.9405 197.618 56.8624 196.918C57.7673 196.218 58.2624 195.347 58.3478 194.305C59.1331 184.436 60.1917 174.558 61.5234 164.671C65.7917 132.775 69.6332 107.042 73.0478 87.4742C77.2649 63.1421 83.4881 47.7744 91.7174 41.3712C94.4662 39.9881 96.8394 40.4064 98.837 42.6262V42.6518C102.2 46.7499 104.087 54.4935 104.497 65.8826C104.514 66.5827 104.753 67.2401 105.214 67.8548C105.675 68.4525 106.272 68.9135 107.007 69.2379C107.724 69.5282 108.492 69.6392 109.311 69.5709L127.699 67.9317C128.741 67.8463 129.629 67.4792 130.363 66.8303C131.097 66.1815 131.524 65.4045 131.643 64.4995C132.736 54.8521 135.877 46.5535 141.068 39.6039H141.042ZM159.609 165.004C165.346 163.331 170.545 163.169 175.206 164.518C178.176 165.44 180.959 166.814 183.554 168.641C190.418 174.037 194.157 180.218 194.772 187.185L194.797 187.543C194.883 189.148 194.712 190.557 194.285 191.77C194.097 192.196 193.901 192.606 193.696 192.999C191.374 197.473 187.097 199.735 180.865 199.786C175.931 199.547 172.278 196.431 169.904 190.438C168.812 187.706 167.514 185.281 166.012 183.164C162.699 178.417 158.431 174.993 153.207 172.893C152.473 172.346 152.08 171.809 152.029 171.279V171.254C152.029 171.22 152.029 171.185 152.029 171.151C152.029 171.117 152.029 171.091 152.029 171.074C152.029 170.904 152.046 170.741 152.08 170.588V170.562C152.182 169.845 152.584 169.171 153.284 168.539C154.957 166.951 157.065 165.773 159.609 165.004Z" fill="black"/>
</svg>
