<svg viewBox="0 0 800 800" xmlns="http://www.w3.org/2000/svg" role="img" aria-label="service key visual">
  <defs>
    <radialGradient id="bg" cx="50%" cy="40%" r="64%">
      <stop offset="0%" stop-color="#2A2410"/><stop offset="54%" stop-color="#0C0B12"/><stop offset="100%" stop-color="#0A0A0C"/>
    </radialGradient>
    <filter id="g" x="-50%" y="-50%" width="200%" height="200%"><feGaussianBlur stdDeviation="9" result="b"/><feMerge><feMergeNode in="b"/><feMergeNode in="SourceGraphic"/></feMerge></filter>
  </defs>
  <rect width="800" height="800" fill="url(#bg)"/>
  <circle cx="400" cy="400" r="256" fill="none" stroke="#ffffff" stroke-opacity="0.05" stroke-width="1"/>
  <circle cx="400" cy="400" r="150" fill="none" stroke="#ffffff" stroke-opacity="0.05" stroke-width="1"/>
  <g filter="url(#g)"><line x1="400" y1="400" x2="400.0" y2="200.0" stroke="#FBBF24" stroke-width="1.5" stroke-opacity="0.38"/><line x1="400" y1="400" x2="556.4" y2="275.3" stroke="#FBBF24" stroke-width="1.5" stroke-opacity="0.38"/><line x1="400" y1="400" x2="595.0" y2="444.5" stroke="#FBBF24" stroke-width="1.5" stroke-opacity="0.38"/><line x1="400" y1="400" x2="486.8" y2="580.2" stroke="#FBBF24" stroke-width="1.5" stroke-opacity="0.38"/><line x1="400" y1="400" x2="313.2" y2="580.2" stroke="#FBBF24" stroke-width="1.5" stroke-opacity="0.38"/><line x1="400" y1="400" x2="205.0" y2="444.5" stroke="#FBBF24" stroke-width="1.5" stroke-opacity="0.38"/><line x1="400" y1="400" x2="243.6" y2="275.3" stroke="#FBBF24" stroke-width="1.5" stroke-opacity="0.38"/><line x1="400.0" y1="200.0" x2="556.4" y2="275.3" stroke="#FBBF24" stroke-width="1" stroke-opacity="0.16"/><line x1="556.4" y1="275.3" x2="595.0" y2="444.5" stroke="#FBBF24" stroke-width="1" stroke-opacity="0.16"/><line x1="595.0" y1="444.5" x2="486.8" y2="580.2" stroke="#FBBF24" stroke-width="1" stroke-opacity="0.16"/><line x1="486.8" y1="580.2" x2="313.2" y2="580.2" stroke="#FBBF24" stroke-width="1" stroke-opacity="0.16"/><line x1="313.2" y1="580.2" x2="205.0" y2="444.5" stroke="#FBBF24" stroke-width="1" stroke-opacity="0.16"/><line x1="205.0" y1="444.5" x2="243.6" y2="275.3" stroke="#FBBF24" stroke-width="1" stroke-opacity="0.16"/><line x1="243.6" y1="275.3" x2="400.0" y2="200.0" stroke="#FBBF24" stroke-width="1" stroke-opacity="0.16"/><circle cx="400.0" cy="200.0" r="13" fill="#FBBF24" fill-opacity="0.82"/><circle cx="556.4" cy="275.3" r="9" fill="#FBBF24" fill-opacity="0.5"/><circle cx="595.0" cy="444.5" r="13" fill="#FBBF24" fill-opacity="0.82"/><circle cx="486.8" cy="580.2" r="9" fill="#FBBF24" fill-opacity="0.5"/><circle cx="313.2" cy="580.2" r="13" fill="#FBBF24" fill-opacity="0.82"/><circle cx="205.0" cy="444.5" r="9" fill="#FBBF24" fill-opacity="0.5"/><circle cx="243.6" cy="275.3" r="13" fill="#FBBF24" fill-opacity="0.82"/></g>
  <circle cx="400" cy="400" r="6" fill="#FBBF24" filter="url(#g)"/>
</svg>