<svg viewBox="0 0 800 800" xmlns="http://www.w3.org/2000/svg" role="img" aria-label="service key visual">
  <defs>
    <radialGradient id="bg" cx="50%" cy="40%" r="64%">
      <stop offset="0%" stop-color="#2A1018"/><stop offset="54%" stop-color="#0C0B12"/><stop offset="100%" stop-color="#0A0A0C"/>
    </radialGradient>
    <filter id="g" x="-50%" y="-50%" width="200%" height="200%"><feGaussianBlur stdDeviation="9" result="b"/><feMerge><feMergeNode in="b"/><feMergeNode in="SourceGraphic"/></feMerge></filter>
  </defs>
  <rect width="800" height="800" fill="url(#bg)"/>
  <circle cx="400" cy="400" r="256" fill="none" stroke="#ffffff" stroke-opacity="0.05" stroke-width="1"/>
  <circle cx="400" cy="400" r="150" fill="none" stroke="#ffffff" stroke-opacity="0.05" stroke-width="1"/>
  <g filter="url(#g)"><path d="M 270 486 L 338 430 L 400 404 L 468 326 L 546 250" fill="none" stroke="#F43F5E" stroke-width="4" stroke-opacity="0.8"/><circle cx="300" cy="470" r="7" fill="#F43F5E" fill-opacity="0.5"/><circle cx="352" cy="424" r="7" fill="#F43F5E" fill-opacity="0.5"/><circle cx="392" cy="446" r="7" fill="#F43F5E" fill-opacity="0.5"/><circle cx="430" cy="388" r="7" fill="#F43F5E" fill-opacity="0.5"/><circle cx="470" cy="352" r="7" fill="#F43F5E" fill-opacity="0.5"/><circle cx="512" cy="300" r="7" fill="#F43F5E" fill-opacity="0.5"/><circle cx="336" cy="500" r="7" fill="#F43F5E" fill-opacity="0.5"/><circle cx="552" cy="268" r="7" fill="#F43F5E" fill-opacity="0.5"/><circle cx="486" cy="408" r="7" fill="#F43F5E" fill-opacity="0.5"/><circle cx="288" cy="432" r="7" fill="#F43F5E" fill-opacity="0.5"/><circle cx="414" cy="360" r="7" fill="#F43F5E" fill-opacity="0.5"/></g>
  <circle cx="400" cy="400" r="6" fill="#F43F5E" filter="url(#g)"/>
</svg>