<svg xmlns="http://www.w3.org/2000/svg" viewBox="0 0 1280 768">
  <defs>
    <radialGradient id="g" cx="50%" cy="48%" r="62%"><stop offset="0" stop-color="#17375f"/><stop offset="0.52" stop-color="#071827"/><stop offset="1" stop-color="#02070c"/></radialGradient>
    <linearGradient id="gold" x1="0" y1="0" x2="1" y2="1"><stop stop-color="#fff0a8"/><stop offset="0.5" stop-color="#d6a937"/><stop offset="1" stop-color="#7b5412"/></linearGradient>
    <filter id="glow"><feGaussianBlur stdDeviation="9" result="b"/><feMerge><feMergeNode in="b"/><feMergeNode in="SourceGraphic"/></feMerge></filter>
    <pattern id="dots" width="32" height="32" patternUnits="userSpaceOnUse"><circle cx="4" cy="4" r="2" fill="#4cc9f0" opacity=".16"/></pattern>
  </defs>
  <rect width="1280" height="768" fill="url(#g)"/><rect width="1280" height="768" fill="url(#dots)"/>
  <path d="M160 540C300 410 422 455 520 350s230-130 405-52 222 10 300-84" fill="none" stroke="#d83342" stroke-width="12" opacity=".75"/>
  <path d="M150 590c160-90 295-55 410-155s232-122 398-30 240 38 330-34" fill="none" stroke="#246bff" stroke-width="12" opacity=".75"/>
  <g transform="translate(640 386)" filter="url(#glow)">
    <circle r="178" fill="url(#gold)"/><circle r="144" fill="none" stroke="#fff2b6" stroke-width="10" opacity=".55"/>
    <path d="M-82-43l38 146 48-116 48 116 38-146" fill="none" stroke="#0b1220" stroke-width="30" stroke-linecap="round" stroke-linejoin="round"/>
    <path d="M-110-5h220M-98 45H98" stroke="#0b1220" stroke-width="22" stroke-linecap="round"/>
  </g>
  <g transform="translate(210 230)" opacity=".82"><path d="M0 82h220L110 0z" fill="#e8eef7"/><rect x="20" y="100" width="36" height="150" fill="#8ea4c3"/><rect x="92" y="100" width="36" height="150" fill="#8ea4c3"/><rect x="164" y="100" width="36" height="150" fill="#8ea4c3"/><rect y="258" width="220" height="24" rx="8" fill="#e8eef7"/></g>
  <g fill="#77f2c3" opacity=".8"><circle cx="1010" cy="250" r="16"/><circle cx="1075" cy="310" r="12"/><circle cx="970" cy="375" r="13"/><path d="M1010 250l65 60-105 65" stroke="#77f2c3" stroke-width="5" fill="none"/></g>
</svg>
