<svg xmlns="http://www.w3.org/2000/svg" viewBox="0 0 1280 768">
  <defs><linearGradient id="bg" x1="0" y1="0" x2="1" y2="1"><stop stop-color="#07101e"/><stop offset=".52" stop-color="#0d2338"/><stop offset="1" stop-color="#020409"/></linearGradient><filter id="glow"><feGaussianBlur stdDeviation="8" result="b"/><feMerge><feMergeNode in="b"/><feMergeNode in="SourceGraphic"/></feMerge></filter></defs>
  <rect width="1280" height="768" fill="url(#bg)"/>
  <g opacity=".28" stroke="#7aa6ff" stroke-width="2"><path d="M0 610h1280M0 660h1280M110 768L540 0M430 768L690 0M760 768L790 0M1080 768L940 0"/></g>
  <g transform="translate(270 132)"><rect width="190" height="470" rx="18" fill="#b8c9e8" opacity=".92"/><rect x="238" y="70" width="220" height="400" rx="20" fill="#6f85ad" opacity=".9"/><rect x="62" y="40" width="64" height="390" fill="#162338" opacity=".28"/><g fill="#091526" opacity=".8"><rect x="42" y="58" width="28" height="38"/><rect x="102" y="58" width="28" height="38"/><rect x="42" y="132" width="28" height="38"/><rect x="102" y="132" width="28" height="38"/><rect x="42" y="206" width="28" height="38"/><rect x="102" y="206" width="28" height="38"/><rect x="42" y="280" width="28" height="38"/><rect x="102" y="280" width="28" height="38"/><rect x="292" y="124" width="32" height="44"/><rect x="370" y="124" width="32" height="44"/><rect x="292" y="210" width="32" height="44"/><rect x="370" y="210" width="32" height="44"/><rect x="292" y="296" width="32" height="44"/><rect x="370" y="296" width="32" height="44"/></g></g>
  <g transform="translate(770 306)" filter="url(#glow)"><path d="M46 10C46-98 202-98 202 10" fill="none" stroke="#f5c451" stroke-width="34" stroke-linecap="round"/><path d="M82 16h236c20 0 36 16 36 36v180c0 20-16 36-36 36H82c-20 0-36-16-36-36V52c0-20 16-36 36-36z" fill="#f5c451"/><circle cx="200" cy="124" r="32" fill="#111827"/><rect x="186" y="146" width="28" height="62" rx="14" fill="#111827"/></g>
  <path d="M110 615c170 10 260-90 420-62 155 27 220-150 360-118 105 24 165-25 260-110" fill="none" stroke="#48e6a4" stroke-width="12" stroke-linecap="round"/>
</svg>
